<?xml version="1.0" encoding="us-ascii" standalone="no"?><svg xmlns="http://www.w3.org/2000/svg" xmlns:xlink="http://www.w3.org/1999/xlink" contentStyleType="text/css" height="376px" preserveAspectRatio="none" style="width:606px;height:376px;background:#FFFFFF;" version="1.1" viewBox="0 0 606 376" width="606.4px" zoomAndPan="magnify"><defs/><g><!--cluster Classic Whodarr--><g id="cluster_Classic Whodarr"><path d="M76.306,4.8109 L168.306,4.8109 A3,3 0 0 1 170.306,6.8109 L175.906,24.5078 L395.506,24.5078 A2,2 0 0 1 397.506,26.5078 L397.506,171.6109 A2,2 0 0 1 395.506,173.6109 L76.306,173.6109 A2,2 0 0 1 74.306,171.6109 L74.306,6.8109 A2,2 0 0 1 76.306,4.8109 " fill="none" style="stroke:#000000;stroke-width:1.2000000000000002;"/><line style="stroke:#000000;stroke-width:1.2000000000000002;" x1="74.306" x2="175.906" y1="24.5078" y2="24.5078"/><text fill="#000000" font-family="sans-serif" font-size="11.2" font-weight="bold" lengthAdjust="spacing" textLength="91.2" x="77.506" y="18.4969">Classic Whodarr</text></g><!--cluster Media Playing Services--><g id="cluster_Media Playing Services"><polygon fill="none" points="393.506,207.2109,401.506,199.2109,593.506,199.2109,593.506,289.6109,585.506,297.6109,393.506,297.6109,393.506,207.2109" style="stroke:#181818;stroke-width:0.8000000000000002;"/><line style="stroke:#181818;stroke-width:0.8000000000000002;" x1="585.506" x2="593.506" y1="207.2109" y2="199.2109"/><line style="stroke:#181818;stroke-width:0.8000000000000002;" x1="393.506" x2="585.506" y1="207.2109" y2="207.2109"/><line style="stroke:#181818;stroke-width:0.8000000000000002;" x1="585.506" x2="585.506" y1="207.2109" y2="297.6109"/><text fill="#000000" font-family="sans-serif" font-size="11.2" font-weight="bold" lengthAdjust="spacing" textLength="130.4" x="425.106" y="221.6969">Media Playing Services</text></g><!--cluster Downloading Services--><g id="cluster_Downloading Services"><polygon fill="none" points="175.106,207.2109,183.106,199.2109,361.506,199.2109,361.506,289.6109,353.506,297.6109,175.106,297.6109,175.106,207.2109" style="stroke:#181818;stroke-width:0.8000000000000002;"/><line style="stroke:#181818;stroke-width:0.8000000000000002;" x1="353.506" x2="361.506" y1="207.2109" y2="199.2109"/><line style="stroke:#181818;stroke-width:0.8000000000000002;" x1="175.106" x2="353.506" y1="207.2109" y2="207.2109"/><line style="stroke:#181818;stroke-width:0.8000000000000002;" x1="353.506" x2="353.506" y1="207.2109" y2="297.6109"/><text fill="#000000" font-family="sans-serif" font-size="11.2" font-weight="bold" lengthAdjust="spacing" textLength="125.6" x="202.306" y="221.6969">Downloading Services</text></g><!--entity cli--><g id="elem_cli"><rect fill="#F1F1F1" height="38.8969" rx="2" ry="2" style="stroke:#181818;stroke-width:0.4000000000000001;" width="42.4" x="323.506" y="34.4109"/><rect fill="#F1F1F1" height="8" style="stroke:#181818;stroke-width:0.4000000000000001;" width="12" x="349.906" y="38.4109"/><rect fill="#F1F1F1" height="1.6" style="stroke:#181818;stroke-width:0.4000000000000001;" width="3.2" x="348.306" y="40.0109"/><rect fill="#F1F1F1" height="1.6" style="stroke:#181818;stroke-width:0.4000000000000001;" width="3.2" x="348.306" y="43.2109"/><text fill="#000000" font-family="sans-serif" font-size="11.2" lengthAdjust="spacing" textLength="10.4" x="335.506" y="62.4969">cli</text></g><!--entity organizer--><g id="elem_organizer"><rect fill="#F1F1F1" height="38.8969" rx="2" ry="2" style="stroke:#181818;stroke-width:0.4000000000000001;" width="79.2" x="305.106" y="121.6109"/><rect fill="#F1F1F1" height="8" style="stroke:#181818;stroke-width:0.4000000000000001;" width="12" x="368.306" y="125.6109"/><rect fill="#F1F1F1" height="1.6" style="stroke:#181818;stroke-width:0.4000000000000001;" width="3.2" x="366.706" y="127.2109"/><rect fill="#F1F1F1" height="1.6" style="stroke:#181818;stroke-width:0.4000000000000001;" width="3.2" x="366.706" y="130.4109"/><text fill="#000000" font-family="sans-serif" font-size="11.2" lengthAdjust="spacing" textLength="47.2" x="317.106" y="149.6969">organizer</text></g><!--entity daemon--><g id="elem_daemon"><rect fill="#F1F1F1" height="38.8969" rx="2" ry="2" style="stroke:#181818;stroke-width:0.4000000000000001;" width="72.8" x="205.106" y="34.4109"/><rect fill="#F1F1F1" height="8" style="stroke:#181818;stroke-width:0.4000000000000001;" width="12" x="261.906" y="38.4109"/><rect fill="#F1F1F1" height="1.6" style="stroke:#181818;stroke-width:0.4000000000000001;" width="3.2" x="260.306" y="40.0109"/><rect fill="#F1F1F1" height="1.6" style="stroke:#181818;stroke-width:0.4000000000000001;" width="3.2" x="260.306" y="43.2109"/><text fill="#000000" font-family="sans-serif" font-size="11.2" lengthAdjust="spacing" textLength="40.8" x="217.106" y="62.4969">daemon</text></g><!--entity downloader--><g id="elem_downloader"><rect fill="#F1F1F1" height="38.8969" rx="2" ry="2" style="stroke:#181818;stroke-width:0.4000000000000001;" width="90.4" x="87.506" y="121.6109"/><rect fill="#F1F1F1" height="8" style="stroke:#181818;stroke-width:0.4000000000000001;" width="12" x="161.906" y="125.6109"/><rect fill="#F1F1F1" height="1.6" style="stroke:#181818;stroke-width:0.4000000000000001;" width="3.2" x="160.306" y="127.2109"/><rect fill="#F1F1F1" height="1.6" style="stroke:#181818;stroke-width:0.4000000000000001;" width="3.2" x="160.306" y="130.4109"/><text fill="#000000" font-family="sans-serif" font-size="11.2" lengthAdjust="spacing" textLength="58.4" x="99.506" y="149.6969">downloader</text></g><!--entity watcher--><g id="elem_watcher"><rect fill="#F1F1F1" height="38.8969" rx="2" ry="2" style="stroke:#181818;stroke-width:0.4000000000000001;" width="71.2" x="205.906" y="121.6109"/><rect fill="#F1F1F1" height="8" style="stroke:#181818;stroke-width:0.4000000000000001;" width="12" x="261.106" y="125.6109"/><rect fill="#F1F1F1" height="1.6" style="stroke:#181818;stroke-width:0.4000000000000001;" width="3.2" x="259.506" y="127.2109"/><rect fill="#F1F1F1" height="1.6" style="stroke:#181818;stroke-width:0.4000000000000001;" width="3.2" x="259.506" y="130.4109"/><text fill="#000000" font-family="sans-serif" font-size="11.2" lengthAdjust="spacing" textLength="39.2" x="217.906" y="149.6969">watcher</text></g><!--entity Plex--><g id="elem_Plex"><rect fill="#F1F1F1" height="38.8969" rx="2" ry="2" style="stroke:#181818;stroke-width:0.4000000000000001;" width="52.8" x="521.506" y="239.2109"/><rect fill="#F1F1F1" height="8" style="stroke:#181818;stroke-width:0.4000000000000001;" width="12" x="558.306" y="243.2109"/><rect fill="#F1F1F1" height="1.6" style="stroke:#181818;stroke-width:0.4000000000000001;" width="3.2" x="556.706" y="244.8109"/><rect fill="#F1F1F1" height="1.6" style="stroke:#181818;stroke-width:0.4000000000000001;" width="3.2" x="556.706" y="248.0109"/><text fill="#000000" font-family="sans-serif" font-size="11.2" lengthAdjust="spacing" textLength="20.8" x="533.506" y="267.2969">Plex</text></g><!--entity Jellyfin--><g id="elem_Jellyfin"><rect fill="#F1F1F1" height="38.8969" rx="2" ry="2" style="stroke:#181818;stroke-width:0.4000000000000001;" width="65.6" x="427.906" y="239.2109"/><rect fill="#F1F1F1" height="8" style="stroke:#181818;stroke-width:0.4000000000000001;" width="12" x="477.506" y="243.2109"/><rect fill="#F1F1F1" height="1.6" style="stroke:#181818;stroke-width:0.4000000000000001;" width="3.2" x="475.906" y="244.8109"/><rect fill="#F1F1F1" height="1.6" style="stroke:#181818;stroke-width:0.4000000000000001;" width="3.2" x="475.906" y="248.0109"/><text fill="#000000" font-family="sans-serif" font-size="11.2" lengthAdjust="spacing" textLength="33.6" x="439.906" y="267.2969">Jellyfin</text></g><!--entity qBitTorrent--><g id="elem_qBitTorrent"><rect fill="#F1F1F1" height="38.8969" rx="2" ry="2" style="stroke:#181818;stroke-width:0.4000000000000001;" width="88.8" x="232.306" y="239.2109"/><rect fill="#F1F1F1" height="8" style="stroke:#181818;stroke-width:0.4000000000000001;" width="12" x="305.106" y="243.2109"/><rect fill="#F1F1F1" height="1.6" style="stroke:#181818;stroke-width:0.4000000000000001;" width="3.2" x="303.506" y="244.8109"/><rect fill="#F1F1F1" height="1.6" style="stroke:#181818;stroke-width:0.4000000000000001;" width="3.2" x="303.506" y="248.0109"/><text fill="#000000" font-family="sans-serif" font-size="11.2" lengthAdjust="spacing" textLength="56.8" x="244.306" y="267.2969">qBitTorrent</text></g><!--entity Doctor Who Episode API--><g id="elem_Doctor Who Episode API"><path d="M14.4217,245.7693 C16.9183,241.0084 21.605,240.5269 24.0866,245.7838 C25.541,239.6948 30.577,239.0775 34.2442,243.6819 C36.6038,239.2471 41.3567,239.08 43.9308,243.4457 C46.2218,238.0104 50.0306,237.9313 53.7923,241.9043 C56.7249,237.4869 59.9116,237.4138 63.2059,241.5041 C65.5538,236.7444 69.2588,236.3064 72.543,240.5311 C74.9546,234.8588 80.1225,234.7868 83.1914,239.881 C86.3605,236.5461 88.964,236.809 91.2708,240.8282 C94.2626,235.1719 99.5311,234.7351 102.4462,240.9006 C105.6066,238.0288 108.732,237.8147 110.5652,242.3544 C113.6551,236.5436 118.9238,236.924 121.6034,242.7437 C124.6198,239.4109 129.1362,239.4042 130.8367,244.2324 C134.213,239.922 137.7715,239.8759 140.2921,245.0826 C143.3282,241.4308 147.3215,240.2818 149.8095,245.6603 C158.0793,246.4558 160.8155,252.1718 157.0963,259.3492 C161.4579,266.8992 158.9038,271.3508 150.7109,273.0495 C147.5129,278.5725 144.4774,278.1785 140.7704,273.5478 C137.9305,278.2764 132.6119,277.8677 129.9885,273.2969 C128.01,277.6439 123.8639,277.6358 121.094,274.2015 C118.4627,279.6818 114.1087,280.3395 110.648,275.0024 C107.5038,279.1644 103.8336,278.7004 101.5497,274.1083 C98.5891,278.6138 94.5827,278.8555 91.4226,274.3319 C88.8857,279.6418 85.3791,279.9132 82.0341,275.0798 C79.6474,280.2133 74.9092,280.4096 72.1015,275.4959 C69.0977,280.5503 64.4939,279.3415 62.275,274.7005 C59.2142,278.0063 55.6982,277.3969 53.7134,273.4333 C50.5322,278.1397 47.147,278.8934 42.983,274.6057 C39.8716,279.2474 36.1822,279.6166 33.3512,274.3336 C29.5994,277.8821 26.3036,277.2143 23.8569,272.7812 C21.2751,277.3961 18.4245,277.21 15.4,273.2161 C7.5094,271.1897 5.0968,266.3238 10.3922,259.4876 C4.8,252.7376 5.5077,248.2583 14.4217,245.7693 " fill="#F1F1F1" style="stroke:#181818;stroke-width:0.4000000000000001;"/><text fill="#000000" font-family="sans-serif" font-size="11.2" lengthAdjust="spacing" textLength="124" x="19.506" y="263.2969">Doctor Who Episode API</text></g><!--entity WebArchive--><g id="elem_WebArchive"><path d="M148.2308,333.6867 C150.8923,329.0382 154.2637,328.058 157.9346,332.6236 C159.7255,328.376 162.9132,326.4614 166.6667,330.5737 C167.9935,326.3089 171.6584,324.6274 175.3068,327.9193 C177.3926,322.7953 180.9812,323.5484 184.0684,326.8819 C187.1569,323.1338 191.896,322.8027 193.5638,328.3354 C197.5003,324.2785 201.3539,325.7756 202.8085,330.8485 C206.1499,326.2157 208.8596,327.2794 211.8985,331.171 C214.9085,327.3844 218.7431,329.2996 220.0333,333.0316 C226.691,336.076 228.5312,342.8799 221.6147,347.4165 C227.9222,351.6632 226.2832,357.3056 220.2256,360.2097 C218.7251,365.6165 215.1155,365.5637 211.4454,362.4438 C209.6971,367.6266 205.7129,367.1742 202.6659,363.772 C200.7794,368.2345 197.3887,368.0891 194.5497,364.7647 C192.7785,369.9738 188.0775,371.0071 184.2897,367.0127 C181.117,370.0138 177.0974,369.189 176.4652,364.4458 C173.7274,369.726 169.0852,369.2262 166.6646,364.1457 C162.321,368.0681 159.1394,367.6922 157.2443,361.7964 C153.4827,365.7332 150.0958,363.6867 148.4934,359.477 C139.8808,357.2815 140.3639,352.6241 144.1142,346.3152 C138.4467,340.6255 140.4802,335.0024 148.2308,333.6867 " fill="#F1F1F1" style="stroke:#181818;stroke-width:0.4000000000000001;"/><text fill="#000000" font-family="sans-serif" font-size="11.2" lengthAdjust="spacing" textLength="60.8" x="153.506" y="350.4969">WebArchive</text></g><!--link cli to organizer--><g id="link_cli_organizer"><path d="M344.706,73.8109 C344.706,87.9949 344.706,102.4909 344.706,116.6669 " fill="none" id="cli-to-organizer" style="stroke:#181818;stroke-width:0.8000000000000002;"/><polygon fill="#181818" points="344.706,121.4669,347.906,114.2669,344.706,117.4669,341.506,114.2669,344.706,121.4669" style="stroke:#181818;stroke-width:0.8000000000000002;"/></g><!--link daemon to organizer--><g id="link_daemon_organizer"><path d="M264.41,73.8109 C281.514,87.9949 301.0838,104.2262 318.1718,118.4022 " fill="none" id="daemon-to-organizer" style="stroke:#181818;stroke-width:0.8000000000000002;"/><polygon fill="#181818" points="321.866,121.4669,318.3678,114.407,318.7875,118.913,314.2815,119.3327,321.866,121.4669" style="stroke:#181818;stroke-width:0.8000000000000002;"/></g><!--link daemon to downloader--><g id="link_daemon_downloader"><path d="M217.362,73.8109 C199.33,87.9949 178.5743,104.3227 160.5583,118.4987 " fill="none" id="daemon-to-downloader" style="stroke:#181818;stroke-width:0.8000000000000002;"/><polygon fill="#181818" points="156.786,121.4669,164.4232,119.5295,159.9295,118.9934,160.4656,114.4998,156.786,121.4669" style="stroke:#181818;stroke-width:0.8000000000000002;"/></g><!--link daemon to watcher--><g id="link_daemon_watcher"><path d="M241.506,73.8109 C241.506,87.9949 241.506,102.4909 241.506,116.6669 " fill="none" id="daemon-to-watcher" style="stroke:#181818;stroke-width:0.8000000000000002;"/><polygon fill="#181818" points="241.506,121.4669,244.706,114.2669,241.506,117.4669,238.306,114.2669,241.506,121.4669" style="stroke:#181818;stroke-width:0.8000000000000002;"/></g><!--link Downloading Services to WebArchive--><g id="link_Downloading Services_WebArchive"><path d="M183.906,297.915 C183.906,298.0282 183.906,298.1415 183.906,298.2548 C183.906,298.4814 183.906,298.7082 183.906,298.9351 C183.906,299.3889 183.906,299.8433 183.906,300.2979 C183.906,302.1166 183.906,303.9403 183.906,305.7561 C183.906,313.0189 183.906,315.3529 183.906,321.5149 " fill="none" id="Downloading Services-to-WebArchive" style="stroke:#181818;stroke-width:0.8000000000000002;"/><polygon fill="#181818" points="183.906,326.3149,187.106,319.1149,183.906,322.3149,180.706,319.1149,183.906,326.3149" style="stroke:#181818;stroke-width:0.8000000000000002;"/></g><!--link downloader to Downloading Services--><g id="link_downloader_Downloading Services"><path d="M151.858,160.8749 C158.37,168.2749 165.106,177.1949 169.506,186.4109 C171.199,189.9579 172.6931,193.6958 174.0117,197.5263 C174.3414,198.484 174.6601,199.4474 174.9681,200.4151 C175.0066,200.536 173.6016,196.0792 173.6398,196.2003 " fill="none" id="downloader-to-Downloading Services" style="stroke:#181818;stroke-width:0.8000000000000002;"/><polygon fill="#181818" points="175.0832,200.7781,175.97,192.9491,173.8804,196.9632,169.8662,194.8736,175.0832,200.7781" style="stroke:#181818;stroke-width:0.8000000000000002;"/></g><!--link downloader to Doctor Who Episode API--><g id="link_downloader_Doctor Who Episode API"><path d="M124.362,160.9069 C114.842,182.4749 101.3003,213.1637 91.7803,234.7317 " fill="none" id="downloader-to-Doctor Who Episode API" style="stroke:#181818;stroke-width:0.8000000000000002;"/><polygon fill="#181818" points="89.842,239.1229,95.6769,233.8282,91.4572,235.4636,89.8219,231.2439,89.842,239.1229" style="stroke:#181818;stroke-width:0.8000000000000002;"/></g><!--link watcher to Media Playing Services--><g id="link_watcher_Media Playing Services"><path d="M261.25,160.8509 C269.802,167.9709 280.314,175.4429 291.106,180.0109 C308.978,187.5789 317.162,177.3069 334.306,186.4109 C353.066,196.3709 369.25,213.8709 380.849,229.0759 C383.7488,232.8772 386.362,236.535 388.6572,239.8957 C389.8048,241.5761 390.8729,243.1821 391.8577,244.6947 C392.35,245.451 392.8215,246.1839 393.2717,246.8911 C393.3279,246.9795 390.8113,243.0151 390.8669,243.1027 " fill="none" id="watcher-to-Media Playing Services" style="stroke:#181818;stroke-width:0.8000000000000002;"/><polygon fill="#181818" points="393.4395,247.1551,392.2821,239.3614,391.2956,243.7781,386.879,242.7916,393.4395,247.1551" style="stroke:#181818;stroke-width:0.8000000000000002;"/></g><!--link watcher to Doctor Who Episode API--><g id="link_watcher_Doctor Who Episode API"><path d="M220.498,160.9789 C212.09,167.7709 202.01,174.9869 191.906,180.0109 C182.33,184.7709 178.202,181.4909 168.706,186.4109 C142.274,200.1149 119.9286,219.4379 103.3366,235.5979 " fill="none" id="watcher-to-Doctor Who Episode API" style="stroke:#181818;stroke-width:0.8000000000000002;"/><polygon fill="#181818" points="99.898,238.9469,107.2886,236.2157,102.7635,236.1561,102.8232,231.631,99.898,238.9469" style="stroke:#181818;stroke-width:0.8000000000000002;"/></g><!--SRC=[ZP7DRi8m48JlVegLxxn29IWz5AbI990uH3birzjaXV7IJVXhrNSlQQ2Y9P7mzPiPpzWKTHl0JvKQDLXM2ayRgJKmZBDdxwZ3ItuT6rMoO-_S1cc59OD_Z5ZNGgqhe9c7JmUdarEK0aQZ1yZLIapomLPq922lDTq3W-vJL0pzT8yDLItwSYwrPVqB1q788XubbJ1dsmbn_LifYtmu1yqunkERf2lpz7nPh_Lz8ir2pJWrFvO1TTlhxpjTR-Xmh_DMb_V_Hd6Al0plyWP6_vCDndq3]--></g></svg>