<?xml version="1.0" encoding="us-ascii" standalone="no"?><svg xmlns="http://www.w3.org/2000/svg" xmlns:xlink="http://www.w3.org/1999/xlink" contentStyleType="text/css" height="446px" preserveAspectRatio="none" style="width:982px;height:446px;background:#FFFFFF;" version="1.1" viewBox="0 0 982 446" width="982px" zoomAndPan="magnify"><defs/><g><!--cluster Classic Whodarr--><g id="cluster_Classic Whodarr"><path d="M8.5,6.0137 L123.5,6.0137 A3.75,3.75 0 0 1 126,8.5137 L133,30.6348 L407.5,30.6348 A2.5,2.5 0 0 1 410,33.1348 L410,337.5137 A2.5,2.5 0 0 1 407.5,340.0137 L8.5,340.0137 A2.5,2.5 0 0 1 6,337.5137 L6,8.5137 A2.5,2.5 0 0 1 8.5,6.0137 " fill="none" style="stroke:#000000;stroke-width:1.5;"/><line style="stroke:#000000;stroke-width:1.5;" x1="6" x2="133" y1="30.6348" y2="30.6348"/><text fill="#000000" font-family="sans-serif" font-size="14" font-weight="bold" lengthAdjust="spacing" textLength="114" x="10" y="23.1211">Classic Whodarr</text></g><!--cluster Media Playing Services--><g id="cluster_Media Playing Services"><polygon fill="none" points="715,235.0137,725,225.0137,965,225.0137,965,338.0137,955,348.0137,715,348.0137,715,235.0137" style="stroke:#181818;stroke-width:1.0;"/><line style="stroke:#181818;stroke-width:1.0;" x1="955" x2="965" y1="235.0137" y2="225.0137"/><line style="stroke:#181818;stroke-width:1.0;" x1="715" x2="955" y1="235.0137" y2="235.0137"/><line style="stroke:#181818;stroke-width:1.0;" x1="955" x2="955" y1="235.0137" y2="348.0137"/><text fill="#000000" font-family="sans-serif" font-size="14" font-weight="bold" lengthAdjust="spacing" textLength="163" x="754.5" y="253.1211">Media Playing Services</text></g><!--cluster Downloading Services--><g id="cluster_Downloading Services"><polygon fill="none" points="442,235.0137,452,225.0137,675,225.0137,675,338.0137,665,348.0137,442,348.0137,442,235.0137" style="stroke:#181818;stroke-width:1.0;"/><line style="stroke:#181818;stroke-width:1.0;" x1="665" x2="675" y1="235.0137" y2="225.0137"/><line style="stroke:#181818;stroke-width:1.0;" x1="442" x2="665" y1="235.0137" y2="235.0137"/><line style="stroke:#181818;stroke-width:1.0;" x1="665" x2="665" y1="235.0137" y2="348.0137"/><text fill="#000000" font-family="sans-serif" font-size="14" font-weight="bold" lengthAdjust="spacing" textLength="157" x="476" y="253.1211">Downloading Services</text></g><!--entity daemon--><g id="elem_daemon"><rect fill="#F1F1F1" height="48.6211" rx="2.5" ry="2.5" style="stroke:#181818;stroke-width:0.5;" width="91" x="167.5" y="43.0137"/><rect fill="#F1F1F1" height="10" style="stroke:#181818;stroke-width:0.5;" width="15" x="238.5" y="48.0137"/><rect fill="#F1F1F1" height="2" style="stroke:#181818;stroke-width:0.5;" width="4" x="236.5" y="50.0137"/><rect fill="#F1F1F1" height="2" style="stroke:#181818;stroke-width:0.5;" width="4" x="236.5" y="54.0137"/><text fill="#000000" font-family="sans-serif" font-size="14" lengthAdjust="spacing" textLength="51" x="182.5" y="78.1211">daemon</text></g><!--entity downloader--><g id="elem_downloader"><rect fill="#F1F1F1" height="48.6211" rx="2.5" ry="2.5" style="stroke:#181818;stroke-width:0.5;" width="113" x="156.5" y="152.0137"/><rect fill="#F1F1F1" height="10" style="stroke:#181818;stroke-width:0.5;" width="15" x="249.5" y="157.0137"/><rect fill="#F1F1F1" height="2" style="stroke:#181818;stroke-width:0.5;" width="4" x="247.5" y="159.0137"/><rect fill="#F1F1F1" height="2" style="stroke:#181818;stroke-width:0.5;" width="4" x="247.5" y="163.0137"/><text fill="#000000" font-family="sans-serif" font-size="14" lengthAdjust="spacing" textLength="73" x="171.5" y="187.1211">downloader</text></g><!--entity watcher--><g id="elem_watcher"><rect fill="#F1F1F1" height="48.6211" rx="2.5" ry="2.5" style="stroke:#181818;stroke-width:0.5;" width="89" x="304.5" y="152.0137"/><rect fill="#F1F1F1" height="10" style="stroke:#181818;stroke-width:0.5;" width="15" x="373.5" y="157.0137"/><rect fill="#F1F1F1" height="2" style="stroke:#181818;stroke-width:0.5;" width="4" x="371.5" y="159.0137"/><rect fill="#F1F1F1" height="2" style="stroke:#181818;stroke-width:0.5;" width="4" x="371.5" y="163.0137"/><text fill="#000000" font-family="sans-serif" font-size="14" lengthAdjust="spacing" textLength="49" x="319.5" y="187.1211">watcher</text></g><!--entity episodeinfo--><g id="elem_episodeinfo"><rect fill="#F1F1F1" height="48.6211" rx="2.5" ry="2.5" style="stroke:#181818;stroke-width:0.5;" width="113" x="184.5" y="275.0137"/><rect fill="#F1F1F1" height="10" style="stroke:#181818;stroke-width:0.5;" width="15" x="277.5" y="280.0137"/><rect fill="#F1F1F1" height="2" style="stroke:#181818;stroke-width:0.5;" width="4" x="275.5" y="282.0137"/><rect fill="#F1F1F1" height="2" style="stroke:#181818;stroke-width:0.5;" width="4" x="275.5" y="286.0137"/><text fill="#000000" font-family="sans-serif" font-size="14" lengthAdjust="spacing" textLength="73" x="199.5" y="310.1211">episodeinfo</text></g><!--entity cli--><g id="elem_cli"><rect fill="#F1F1F1" height="48.6211" rx="2.5" ry="2.5" style="stroke:#181818;stroke-width:0.5;" width="53" x="45.5" y="43.0137"/><rect fill="#F1F1F1" height="10" style="stroke:#181818;stroke-width:0.5;" width="15" x="78.5" y="48.0137"/><rect fill="#F1F1F1" height="2" style="stroke:#181818;stroke-width:0.5;" width="4" x="76.5" y="50.0137"/><rect fill="#F1F1F1" height="2" style="stroke:#181818;stroke-width:0.5;" width="4" x="76.5" y="54.0137"/><text fill="#000000" font-family="sans-serif" font-size="14" lengthAdjust="spacing" textLength="13" x="60.5" y="78.1211">cli</text></g><!--entity organizer--><g id="elem_organizer"><rect fill="#F1F1F1" height="48.6211" rx="2.5" ry="2.5" style="stroke:#181818;stroke-width:0.5;" width="99" x="22.5" y="152.0137"/><rect fill="#F1F1F1" height="10" style="stroke:#181818;stroke-width:0.5;" width="15" x="101.5" y="157.0137"/><rect fill="#F1F1F1" height="2" style="stroke:#181818;stroke-width:0.5;" width="4" x="99.5" y="159.0137"/><rect fill="#F1F1F1" height="2" style="stroke:#181818;stroke-width:0.5;" width="4" x="99.5" y="163.0137"/><text fill="#000000" font-family="sans-serif" font-size="14" lengthAdjust="spacing" textLength="59" x="37.5" y="187.1211">organizer</text></g><!--entity Plex--><g id="elem_Plex"><rect fill="#F1F1F1" height="48.6211" rx="2.5" ry="2.5" style="stroke:#181818;stroke-width:0.5;" width="66" x="875" y="275.0137"/><rect fill="#F1F1F1" height="10" style="stroke:#181818;stroke-width:0.5;" width="15" x="921" y="280.0137"/><rect fill="#F1F1F1" height="2" style="stroke:#181818;stroke-width:0.5;" width="4" x="919" y="282.0137"/><rect fill="#F1F1F1" height="2" style="stroke:#181818;stroke-width:0.5;" width="4" x="919" y="286.0137"/><text fill="#000000" font-family="sans-serif" font-size="14" lengthAdjust="spacing" textLength="26" x="890" y="310.1211">Plex</text></g><!--entity Jellyfin--><g id="elem_Jellyfin"><rect fill="#F1F1F1" height="48.6211" rx="2.5" ry="2.5" style="stroke:#181818;stroke-width:0.5;" width="82" x="758" y="275.0137"/><rect fill="#F1F1F1" height="10" style="stroke:#181818;stroke-width:0.5;" width="15" x="820" y="280.0137"/><rect fill="#F1F1F1" height="2" style="stroke:#181818;stroke-width:0.5;" width="4" x="818" y="282.0137"/><rect fill="#F1F1F1" height="2" style="stroke:#181818;stroke-width:0.5;" width="4" x="818" y="286.0137"/><text fill="#000000" font-family="sans-serif" font-size="14" lengthAdjust="spacing" textLength="42" x="773" y="310.1211">Jellyfin</text></g><!--entity qBitTorrent--><g id="elem_qBitTorrent"><rect fill="#F1F1F1" height="48.6211" rx="2.5" ry="2.5" style="stroke:#181818;stroke-width:0.5;" width="111" x="512.5" y="275.0137"/><rect fill="#F1F1F1" height="10" style="stroke:#181818;stroke-width:0.5;" width="15" x="603.5" y="280.0137"/><rect fill="#F1F1F1" height="2" style="stroke:#181818;stroke-width:0.5;" width="4" x="601.5" y="282.0137"/><rect fill="#F1F1F1" height="2" style="stroke:#181818;stroke-width:0.5;" width="4" x="601.5" y="286.0137"/><text fill="#000000" font-family="sans-serif" font-size="14" lengthAdjust="spacing" textLength="71" x="527.5" y="310.1211">qBitTorrent</text></g><!--entity Doctor Who Episode API--><g id="elem_Doctor Who Episode API"><path d="M157.1446,392.2117 C160.2653,386.2605 166.1237,385.6586 169.2257,392.2297 C171.0438,384.6186 177.3387,383.8469 181.9227,389.6023 C184.8722,384.0589 190.8133,383.85 194.0309,389.3072 C196.8947,382.513 201.6558,382.4141 206.3578,387.3803 C210.0237,381.8587 214.007,381.7672 218.1249,386.8802 C221.0597,380.9305 225.691,380.3831 229.7962,385.6639 C232.8107,378.5735 239.2706,378.4835 243.1067,384.8513 C247.0681,380.6826 250.3224,381.0113 253.206,386.0353 C256.9457,378.9648 263.5313,378.4189 267.1753,386.1258 C271.1257,382.536 275.0325,382.2684 277.324,387.943 C281.1863,380.6795 287.7722,381.155 291.1218,388.4296 C294.8922,384.2637 300.5377,384.2553 302.6633,390.2905 C306.8837,384.9025 311.3318,384.8449 314.4826,391.3533 C318.2777,386.7885 323.2694,385.3522 326.3793,392.0754 C336.7166,393.0697 340.1369,400.2147 335.4878,409.1865 C340.9399,418.624 337.7472,424.1885 327.5061,426.3119 C323.5086,433.2156 319.7142,432.7231 315.0804,426.9348 C311.5306,432.8455 304.8824,432.3346 301.6031,426.6211 C299.13,432.0549 293.9474,432.0447 290.485,427.7519 C287.1958,434.6023 281.7534,435.4244 277.4275,428.753 C273.4973,433.9555 268.9095,433.3755 266.0546,427.6353 C262.3538,433.2673 257.3458,433.5694 253.3958,427.9149 C250.2246,434.5523 245.8413,434.8915 241.6602,428.8497 C238.6767,435.2666 232.7539,435.512 229.2443,429.3699 C225.4897,435.6879 219.7348,434.1768 216.9612,428.3756 C213.1352,432.5079 208.7403,431.7462 206.2592,426.7916 C202.2827,432.6746 198.0512,433.6168 192.8463,428.2572 C188.957,434.0593 184.3453,434.5207 180.8065,427.917 C176.1167,432.3526 171.997,431.5179 168.9386,425.9765 C165.7114,431.7452 162.1481,431.5124 158.3675,426.5202 C148.5043,423.9872 145.4885,417.9048 152.1077,409.3594 C145.1175,400.922 146.0021,395.3229 157.1446,392.2117 " fill="#F1F1F1" style="stroke:#181818;stroke-width:0.5;"/><text fill="#000000" font-family="sans-serif" font-size="14" lengthAdjust="spacing" textLength="155" x="163.5" y="414.1211">Doctor Who Episode API</text></g><!--entity WebArchive--><g id="elem_WebArchive"><path d="M405.4059,393.1083 C408.7329,387.2978 412.9471,386.0725 417.5357,391.7795 C419.7744,386.4699 423.7589,384.0768 428.4508,389.2171 C430.1094,383.8861 434.6905,381.7842 439.251,385.8991 C441.8583,379.4941 446.3439,380.4355 450.203,384.6023 C454.0636,379.9173 459.9875,379.5034 462.0723,386.4192 C466.9929,381.3482 471.8098,383.2195 473.6282,389.5606 C477.8049,383.7696 481.192,385.0993 484.9907,389.9637 C488.7531,385.2305 493.5464,387.6244 495.1591,392.2895 C503.4812,396.0951 505.7814,404.5998 497.1358,410.2706 C505.0202,415.579 502.9715,422.632 495.3995,426.2622 C493.5238,433.0206 489.0119,432.9546 484.4243,429.0548 C482.2389,435.5332 477.2587,434.9678 473.4499,430.715 C471.0917,436.2931 466.8534,436.1114 463.3046,431.9559 C461.0906,438.4672 455.2143,439.7588 450.4797,434.7658 C446.5137,438.5172 441.4892,437.4862 440.699,431.5572 C437.2767,438.1575 431.474,437.5327 428.4483,431.1821 C423.0188,436.0851 419.0418,435.6153 416.6729,428.2455 C411.9708,433.1665 407.7373,430.6084 405.7343,425.3463 C394.9685,422.6019 395.5724,416.7802 400.2602,408.894 C393.1758,401.7819 395.7177,394.753 405.4059,393.1083 " fill="#F1F1F1" style="stroke:#181818;stroke-width:0.5;"/><text fill="#000000" font-family="sans-serif" font-size="14" lengthAdjust="spacing" textLength="76" x="412" y="414.1211">WebArchive</text></g><!--link daemon to downloader--><g id="link_daemon_downloader"><path d="M213,92.2637 C213,109.9937 213,128.1137 213,145.8337 " fill="none" id="daemon-to-downloader" style="stroke:#181818;stroke-width:1.0;"/><polygon fill="#181818" points="213,151.8337,217,142.8337,213,146.8337,209,142.8337,213,151.8337" style="stroke:#181818;stroke-width:1.0;"/></g><!--link daemon to watcher--><g id="link_daemon_watcher"><path d="M243.18,92.2637 C265.72,109.9937 291.6647,130.4034 314.1847,148.1234 " fill="none" id="daemon-to-watcher" style="stroke:#181818;stroke-width:1.0;"/><polygon fill="#181818" points="318.9,151.8337,314.3006,143.1248,314.9706,148.7418,309.3536,149.4118,318.9,151.8337" style="stroke:#181818;stroke-width:1.0;"/></g><!--link downloader to episodeinfo--><g id="link_downloader_episodeinfo"><path d="M218.47,201.1337 C223.4,222.4537 229.267,247.8082 234.197,269.1082 " fill="none" id="downloader-to-episodeinfo" style="stroke:#181818;stroke-width:1.0;"/><polygon fill="#181818" points="235.55,274.9537,237.4175,265.2835,234.4225,270.0824,229.6236,267.0874,235.55,274.9537" style="stroke:#181818;stroke-width:1.0;"/></g><!--link watcher to episodeinfo--><g id="link_watcher_episodeinfo"><path d="M327.92,201.1337 C308.89,222.4537 285.0352,249.1772 266.0252,270.4772 " fill="none" id="watcher-to-episodeinfo" style="stroke:#181818;stroke-width:1.0;"/><polygon fill="#181818" points="262.03,274.9537,271.0071,270.9025,265.3593,271.2233,265.0385,265.5756,262.03,274.9537" style="stroke:#181818;stroke-width:1.0;"/></g><!--link cli to organizer--><g id="link_cli_organizer"><path d="M72,92.2637 C72,109.9937 72,128.1137 72,145.8337 " fill="none" id="cli-to-organizer" style="stroke:#181818;stroke-width:1.0;"/><polygon fill="#181818" points="72,151.8337,76,142.8337,72,146.8337,68,142.8337,72,151.8337" style="stroke:#181818;stroke-width:1.0;"/></g><!--link daemon to organizer--><g id="link_daemon_organizer"><path d="M181.71,92.2637 C158.34,109.9937 131.3295,130.4865 107.9795,148.2065 " fill="none" id="daemon-to-organizer" style="stroke:#181818;stroke-width:1.0;"/><polygon fill="#181818" points="103.2,151.8337,112.7874,149.5793,107.1829,148.8111,107.9512,143.2066,103.2,151.8337" style="stroke:#181818;stroke-width:1.0;"/></g><!--link episodeinfo to Doctor Who Episode API--><g id="link_episodeinfo_Doctor Who Episode API"><path d="M241,324.2637 C241,341.9937 241,360.1137 241,377.8337 " fill="none" id="episodeinfo-to-Doctor Who Episode API" style="stroke:#181818;stroke-width:1.0;"/><polygon fill="#181818" points="241,383.8337,245,374.8337,241,378.8337,237,374.8337,241,383.8337" style="stroke:#181818;stroke-width:1.0;"/></g><!--link Downloading Services to WebArchive--><g id="link_Downloading Services_WebArchive"><path d="M450,348.3937 C450,348.5353 450,348.6768 450,348.8185 C450,349.1018 450,349.3852 450,349.6689 C450,350.2361 450,350.8041 450,351.3724 C450,353.6457 450,355.9254 450,358.1951 C450,367.2737 450,370.1912 450,377.8937 " fill="none" id="Downloading Services-to-WebArchive" style="stroke:#181818;stroke-width:1.0;"/><polygon fill="#181818" points="450,383.8937,454,374.8937,450,378.8937,446,374.8937,450,383.8937" style="stroke:#181818;stroke-width:1.0;"/></g><!--link downloader to Downloading Services--><g id="link_downloader_Downloading Services"><path d="M269.61,197.0137 C275.43,198.5637 281.3,199.9437 287,201.0137 C300.46,203.5537 398.76,201.1937 410,209.0137 C418.8025,215.1362 425.695,223.6655 431.0845,233.0463 C433.7793,237.7367 436.0983,242.64 438.0925,247.5616 C439.0896,250.0225 440.0054,252.4879 440.8464,254.9336 C441.0567,255.5451 441.2623,256.1553 441.4633,256.7638 C441.5638,257.0681 441.6631,257.372 441.7613,257.6755 C441.8104,257.8272 440.0283,252.265 440.0768,252.4165 " fill="none" id="downloader-to-Downloading Services" style="stroke:#181818;stroke-width:1.0;"/><polygon fill="#181818" points="441.9078,258.1303,442.9705,248.3389,440.382,253.3688,435.3521,250.7803,441.9078,258.1303" style="stroke:#181818;stroke-width:1.0;"/></g><!--link watcher to Media Playing Services--><g id="link_watcher_Media Playing Services"><path d="M393.76,178.5637 C464.37,180.8437 597.94,187.8837 640,209.0137 C663.86,220.9987 684.34,242.8662 698.9862,261.9849 C702.6478,266.7646 705.9448,271.3725 708.8388,275.6112 C710.2858,277.7306 711.632,279.7577 712.8728,281.6678 C713.4931,282.6228 714.0871,283.5487 714.6541,284.4422 C714.725,284.5538 711.5871,279.5949 711.6571,279.7055 " fill="none" id="watcher-to-Media Playing Services" style="stroke:#181818;stroke-width:1.0;"/><polygon fill="#181818" points="714.8655,284.7757,713.4331,275.0316,712.1919,280.5506,706.6729,279.3093,714.8655,284.7757" style="stroke:#181818;stroke-width:1.0;"/></g><!--SRC=[TP71Ri8m38RlUGehTrvX4eCTDcbIfI5nG1mynxJMiXZS0cE8Trzfkq6rDhVeyvVyjYdgFe2VArLgi2mKdhPIQc2OPi_UKOkN_3urAkJ0thajqWVc37uMiIo5hbP0Cmzd1_LP1UHFJMkOJ1xgYnvJL0niwm5wn8gA6xhLjfZRB98ssfNy2cESedHCBSSatyF_ti6BS-dQht_b80XPn9Ea7DxO3a9S_dMLHVxgddhX64yRINVol8i-gEuUfLge6QUgKNgvcq2Z2nXvk75wM_atl66pBkoDSAnhzmC0]--></g></svg>